<svg width="140" height="27" viewBox="0 0 140 27" fill="none" xmlns="http://www.w3.org/2000/svg">
<path d="M52.4935 13.8391V13.9955C52.4935 15.2725 51.6343 16.1065 50.3186 16.1065H38.7728C39.3098 18.8951 41.4847 20.6934 44.6531 20.6934C46.2104 20.6934 47.6604 20.2503 48.9223 19.3382C49.2445 19.1036 49.6205 18.9733 49.9158 18.9733C50.8556 18.9733 51.5537 19.6509 51.5537 20.5631C51.5537 21.2407 51.3121 21.6056 50.6139 22.1529C48.9223 23.4299 46.9085 24.0293 44.6531 24.0293C39.0681 24.0293 34.96 20.12 34.96 14.9337C34.96 9.74738 38.9876 5.75991 44.2503 5.75991C48.9492 5.73385 52.4935 9.17402 52.4935 13.8391ZM38.8802 13.1615H48.627C48.5464 10.6074 46.6937 8.88734 43.9818 8.88734C41.431 8.88734 39.4977 10.6074 38.8802 13.1615Z" fill="#792573"/>
<path d="M71.7213 12.7182V22.1266C71.7213 23.2472 70.8621 24.0812 69.7881 24.0812C68.6335 24.0812 67.8548 23.2472 67.8548 22.1266V13.1613C67.8548 10.7636 66.2975 9.09563 63.9078 9.09563C61.5181 9.09563 59.7996 10.8157 59.7996 13.1613V22.0223C59.7996 23.143 59.0209 23.977 57.8664 23.977C56.7923 23.977 55.9331 23.143 55.9331 22.0223V7.68828C55.9331 6.56762 56.7118 5.73364 57.8664 5.73364C58.9404 5.73364 59.719 6.56762 59.719 7.68828C61.0347 6.48944 62.8069 5.73364 64.9012 5.73364C69.0899 5.73364 71.7213 8.41802 71.7213 12.7182Z" fill="#792573"/>
<path d="M87.2638 22.1005C87.2638 22.8563 86.8879 23.4557 86.1092 23.6903C85.4916 23.9248 84.713 24.0551 83.7195 24.0551C79.4502 24.0551 77.0605 21.9441 77.0605 17.9567V9.40835H75.5837C74.6439 9.40835 73.8921 8.73074 73.8921 7.81857C73.8921 6.90641 74.6708 6.17668 75.5837 6.17668H77.0605V3.10137C77.0605 2.0589 77.9197 1.14673 78.9937 1.14673C80.0678 1.14673 80.927 1.98071 80.927 3.10137V6.17668H84.7935C85.787 6.17668 86.4851 6.93247 86.4851 7.81857C86.4851 8.70468 85.7064 9.40835 84.7935 9.40835H80.927V17.5918C80.927 19.7028 82.001 20.5889 84.4981 20.5889C84.9546 20.5889 85.2768 20.5889 85.5722 20.5889C86.5925 20.615 87.2638 21.2144 87.2638 22.1005Z" fill="#792573"/>
<path d="M100.531 7.68828C100.531 8.73076 99.7526 9.40837 98.6786 9.48656C95.725 9.56474 93.7112 11.4412 93.7112 14.308V22.1266C93.7112 23.2472 92.9326 24.0812 91.778 24.0812C90.704 24.0812 89.8447 23.2472 89.8447 22.1266V7.68828C89.8447 6.56762 90.6234 5.73364 91.778 5.73364C92.852 5.73364 93.6307 6.56762 93.6307 7.68828V8.20952C94.8658 6.77612 96.6379 5.94214 98.6517 5.94214C99.7526 5.94214 100.531 6.69793 100.531 7.68828Z" fill="#792573"/>
<path d="M101.846 21.2923C101.846 19.7807 103.162 18.5037 104.719 18.5037C106.277 18.5037 107.512 19.7807 107.512 21.2923C107.512 22.8039 106.277 24.0809 104.719 24.0809C103.162 24.0027 101.846 22.7778 101.846 21.2923Z" fill="#792573"/>
<path d="M122.198 7.68828C122.198 8.73076 121.419 9.40837 120.345 9.48656C117.392 9.56474 115.378 11.4412 115.378 14.308V22.1266C115.378 23.2472 114.599 24.0812 113.444 24.0812C112.37 24.0812 111.511 23.2472 111.511 22.1266V7.68828C111.511 6.56762 112.29 5.73364 113.444 5.73364C114.519 5.73364 115.297 6.56762 115.297 7.68828V8.20952C116.532 6.77612 118.304 5.94214 120.318 5.94214C121.446 5.94214 122.198 6.69793 122.198 7.68828Z" fill="#792573"/>
<path d="M124.211 16.2366V7.68828C124.211 6.56762 124.99 5.73364 126.145 5.73364C127.299 5.73364 128.078 6.56762 128.078 7.68828V16.5493C128.078 18.8688 129.77 20.5368 132.186 20.5368C134.522 20.5368 136.133 18.8949 136.133 16.5493V7.68828C136.133 6.56762 136.912 5.73364 138.066 5.73364C139.14 5.73364 140 6.56762 140 7.68828V16.3408C140 20.9277 136.751 24.0812 132.186 24.0812C127.487 24.003 124.211 20.8235 124.211 16.2366Z" fill="#792573"/>
<path d="M15.7886 22.2569C15.7886 23.2212 15.0099 23.977 14.0164 23.977C13.3989 23.977 12.9424 23.7425 12.4591 23.2212L5.39735 15.2724C5.02144 14.7511 4.77979 14.3602 4.77979 13.9171C4.77979 13.3959 4.94089 13.005 5.39735 12.4837L11.8952 6.25494C12.2711 5.89007 12.7544 5.65552 13.2915 5.65552C14.2849 5.65552 15.1442 6.41131 15.1442 7.3756C15.1442 7.89684 14.9025 8.28777 14.446 8.80901L9.04905 13.9171L15.3321 20.9799C15.6275 21.423 15.7886 21.8139 15.7886 22.2569Z" fill="#792573"/>
<path d="M1.93325 0C0.859226 0 0 0.833981 0 1.95464V22.1005C0 23.2212 0.859226 24.0551 1.93325 24.0551C3.00728 24.0551 3.8665 23.2993 3.8665 22.1005V1.95464C3.8665 0.833981 3.00728 0 1.93325 0Z" fill="#792573"/>
<path d="M28.0305 16.3146C27.7889 16.0801 27.4935 16.0801 27.1713 16.2364C26.9297 16.3928 26.7954 16.6795 26.7954 16.9922L28.4333 26.4006C28.5138 26.7133 28.6749 26.9218 28.9703 27C29.0509 27 29.0509 27 29.1314 27C29.3731 27 29.5879 26.9218 29.749 26.7654C29.749 26.7654 30.9841 24.8108 31.8433 24.2114C32.7025 23.6119 35.2534 23.6119 35.2534 23.6119C35.5756 23.5338 35.7904 23.3774 35.8709 23.0907C35.9515 22.778 35.8709 22.5695 35.6293 22.3349L28.0305 16.3146Z" fill="#E50043"/>
<path d="M32.0597 8.41802C31.9791 8.10528 31.818 7.89678 31.4421 7.58404C30.8245 7.0628 30.0459 6.61975 29.2672 6.307C28.408 5.94214 27.4145 5.70758 26.3942 5.62939C26.3136 5.62939 26.3136 5.62939 26.2331 5.62939C26.072 5.62939 25.9914 5.62939 25.8572 5.62939C25.7766 5.62939 25.6961 5.62939 25.6155 5.62939C24.8368 5.62939 23.9776 5.70758 23.2258 5.94214C23.1452 5.94214 23.1452 5.94214 23.0647 6.02032C22.9841 6.02032 22.823 6.09851 22.7425 6.09851C22.5814 6.17669 22.5008 6.17669 22.3666 6.25488C22.286 6.25488 22.2055 6.33307 22.1249 6.33307C22.0444 6.41125 21.9638 6.41125 21.8833 6.41125C21.7222 6.48944 21.5611 6.56762 21.4268 6.64581C20.7287 7.01067 20.1111 7.47979 19.4935 8.00103L19.413 8.07921C19.2519 8.1574 19.1713 8.31377 19.0371 8.44408C18.9565 8.52227 18.7954 8.67864 18.7149 8.75682C18.6343 8.83501 18.5538 8.99138 18.3927 9.06957C18.3121 9.22594 18.151 9.38231 18.0705 9.43443C17.9899 9.48656 17.9094 9.5908 17.8288 9.74717C17.7482 9.90355 17.5871 10.0599 17.5066 10.1902C17.426 10.2684 17.426 10.3466 17.3455 10.4248C17.2649 10.5812 17.1038 10.7896 17.0233 10.946C16.9427 11.0242 16.9427 11.1024 16.9427 11.2588C16.8622 11.4151 16.7816 11.6236 16.7011 11.78C16.7011 11.8582 16.6205 12.0146 16.6205 12.0927C16.54 12.2491 16.54 12.4576 16.4594 12.614C16.4594 12.6922 16.3789 12.8485 16.3789 12.9267C16.2983 13.0831 16.2983 13.2916 16.2983 13.448C16.2983 13.6043 16.2983 13.6825 16.2178 13.8128C16.2178 13.9692 16.2178 14.1256 16.1372 14.2559V14.3341C16.1372 14.4123 16.1372 14.5686 16.1372 14.6989V14.7771C16.1372 14.8553 16.1372 14.9335 16.1372 15.0899C16.1372 15.3244 16.1372 15.4547 16.1372 15.6893C16.1372 15.8457 16.1372 15.9238 16.2178 16.002C16.2178 16.1584 16.2983 16.3669 16.2983 16.5233C16.2983 16.6796 16.3789 16.7578 16.3789 16.8881C16.3789 17.0445 16.4594 17.2009 16.54 17.3312V17.4094C16.54 17.4876 16.6205 17.6439 16.6205 17.7221C16.6205 17.8003 16.7011 17.8785 16.7011 17.9567C16.7011 18.0349 16.7816 18.0349 16.7816 18.113C16.8622 18.2694 16.9427 18.4258 16.9427 18.5561C17.0233 18.7125 17.1038 18.8688 17.1844 18.9991C17.2649 19.1555 17.3455 19.2337 17.426 19.364C17.426 19.4422 17.5066 19.5204 17.5066 19.5986C17.5871 19.6768 17.5871 19.7549 17.6677 19.8331C17.6677 19.8331 17.7482 19.9113 17.7482 19.9895C17.8288 20.0677 17.9094 20.1459 17.9899 20.2241C18.0705 20.3804 18.2316 20.5368 18.3658 20.6671C18.4464 20.7453 18.5269 20.9017 18.6075 20.9799L18.688 21.058C18.8491 21.2144 19.0102 21.3708 19.0639 21.4229C19.0639 21.4229 19.1445 21.4229 19.1445 21.5011C20.6213 22.8563 22.5545 23.6903 24.5683 23.8988C25.5081 23.977 25.1859 20.3022 24.5683 20.1459C23.5749 19.8331 22.5545 19.3119 21.7759 18.4258L21.6953 18.3476C21.5342 18.1912 21.4536 18.113 21.3731 17.9827L21.2925 17.9045C21.2925 17.9045 21.212 17.8264 21.212 17.7482C21.212 17.67 21.1314 17.67 21.1314 17.5918C20.9703 17.3572 20.8898 17.2269 20.8092 16.9924L20.7287 16.9142C20.6481 16.7578 20.5676 16.6015 20.5676 16.4711V16.393C20.5676 16.3148 20.5676 16.3148 20.487 16.2366C20.487 16.1584 20.4065 16.002 20.4065 15.8717V15.7935C19.95 13.474 20.9435 11.2066 22.8767 10.086C22.8767 10.086 22.8767 10.086 22.9573 10.086C23.1184 10.0078 23.2795 9.92961 23.3332 9.85142C23.4943 9.77324 23.5749 9.69505 23.7091 9.69505C23.7897 9.69505 23.7897 9.69505 23.7897 9.61686C23.8702 9.53868 24.0313 9.53868 24.1656 9.53868C24.2461 9.53868 24.3267 9.46049 24.3267 9.46049C24.4878 9.38231 24.7026 9.38231 24.9442 9.30412C25.0248 9.30412 25.1859 9.30412 25.2664 9.30412C25.884 9.30412 26.5016 9.30412 27.1192 9.53868C27.1997 9.53868 27.2802 9.53868 27.3608 9.53868C27.8978 9.69505 28.4348 9.98173 28.9181 10.2945C29.0792 10.3727 29.2403 10.4508 29.3746 10.4508C29.9116 10.8157 30.3681 10.8157 30.8514 10.6854C31.7375 10.2423 32.2745 9.33018 32.0597 8.41802Z" fill="#792573"/>
</svg>
