<?xml version="1.0" encoding="utf-8"?>
<!-- Generator: Adobe Illustrator 26.5.0, SVG Export Plug-In . SVG Version: 6.00 Build 0)  -->
<svg version="1.1" id="Слой_1" xmlns="http://www.w3.org/2000/svg" xmlns:xlink="http://www.w3.org/1999/xlink" x="0px" y="0px"
	 viewBox="0 0 410 210" style="enable-background:new 0 0 410 210;" xml:space="preserve">
<style type="text/css">
	.st0{fill:#0767B1;}
	.st1{fill-rule:evenodd;clip-rule:evenodd;fill:#A6A7AA;}
	.st2{fill:#A6A7AA;}
</style>
<g>
	<path class="st0" d="M102.5,151.9H5V5h57.3v98.3h26.3V5h57.5v114.5h10.7v41.5l-54.3,10.9V151.9z M276.4,5c3.6,2,6.9,4.6,9.8,7.6
		c8.5,8.7,13.1,20.7,12.8,32.8c0,1.9-0.2,3.7-0.5,5.5h17.9v101h57.3V51H405V5H276.4z M240.3,38.3c-1.5,1-2.4,2.8-3.7,4.1
		c-1.2,1.3-1.8,3.1-3,4.3c-1.3,1.2-1.9,1.5-3.4,2.4c-1,0.6-2.4,1.9-3.2,2.8c-1.4,1.5-2.6,3.1-3.8,4.8c-0.9,1.3-1.8,2.6-2.3,4.2
		c-0.3,1-0.3,2.3,0.1,3.4c0.2,0.5,0.9,1.3,1.4,1.8c1.9,1.8,3.7,3.2,5.8,4.7c1.9,1.4,4,2.7,6,4c2.1,1.4,4.2,2.7,6.2,4.2
		c2.1,1.7,4.1,3.5,5.7,5.9c0.4,0.5,1,0.8,1.6,0.8c0.5,0,1-0.5,1.3-0.9c1.3-1.9,1.6-3.8,2-5.8c0.5-3.1,0.5-5.9,0.5-8.1
		c0-3.4-0.1-6.1-0.4-9.5c-0.6-8-1.9-14.1-5.9-21.1c-0.5-0.9-1.5-2.1-2.5-2.5C242,37.4,241,37.8,240.3,38.3z M213.8,7
		c11.2,3.5,18.1,9.4,23.6,14.8c1.4,1.3,3.2,4.8,5.2,4.1c3.9-1.4,11.4-12.9,17.5-19.7c0,0,0,0,0.1-0.1c-2.8-0.7-5.8-1.1-8.8-1.1
		h-43.9C209.3,5.5,211.5,6.3,213.8,7z M271.9,72c11.5-4,17.8-14.9,18.1-26.7c0.5-17.1-10.1-32-25.1-37.8
		c-2.4,4.3-11.9,13.1-16.8,18.3c-3.5,3.7-1.9,8.3-0.4,10.8c9.4,15.4,8.4,25,8.3,33.8c-0.1,10-2.6,21-9.9,30
		c-2.1,0.8-3.1-0.1-2.8-1.2c0.7-2.5,2.5-5.3,1.6-7.6c-1.5-3.6-2.6-5.2-5.2-7.3c-6.3-5-13.1-9.5-19.4-15c-2-1.8-4.3,1.4-4.6,3.7
		c-0.9,8.2-1.6,16.3-1.9,24.7c-0.1,2.6-0.4,6.5-0.2,9c0.3,2.7,3,2.4,5.6,1.1c3.7-1.9,8.6-6.7,12.2-8c3.2-1.1,6.3,0.3,6.5,3.6
		c0.5,8-2.9,17.4-5.9,24.9c-2.1,5.2-1.9,6.6-1.1,9c0.7,2-1.2,4.8-3.2,4.9c-2.2,0.1-4.5-2.7-5.4-4.7c-0.8-1.7-0.7-3.6,0.2-5.5
		c1.7-3.8,5.5-11.9,5.6-16.7c0.1-4.8-3.8-0.9-7.6,1.2c-4.6,2.5-12.6,9.5-16.5,16c-3.3,5.6-4.7,11.9-7,18c-0.2,0.5-0.3,0.9-0.5,1.4
		h54.5c25.8,0,45.5-17.4,46.6-42.6C298.5,90,289.3,78.7,271.9,72z M188.3,151.9C188.3,151.9,188.4,151.9,188.3,151.9
		c1.3-3.3,2.4-6.4,3.5-9c2-4.6,3.7-8.1,5.4-13c0.5-1.4,1.5-4.6,1.4-6.1c-0.1-2.6-2.5-4.9-2.2-6.9c0.6-4,1.6-4.8,3.6-6.4
		c2-1.8,3.3-2.2,4.2-5.2c1-3.3,2.1-9.6,2.3-13.1c0.4-5.8,0.6-11-0.6-16.4c-0.3-1.5-0.9-2.9-2.1-3.8c-1-0.7-2.6-0.3-3.8,0
		c-3,0.7-5.1,3-8.2,2.9c-2-0.1-3.9-0.8-5-2.7c-1-1.8,0.7-3.5,2.2-4.4c2.6-1.6,5.2-3,7.3-4.7c1.4-1.2,2-1.8,1.6-4.1
		c-0.4-2.4,0.3-3.8,1.1-5.7c0.6-1.3,0-3.7,0.2-5.7c0.2-1.5,0.4-3.4,0.6-4.6c1-7.7,2.4-12.2,3.5-17.9c0.4-1.9,0.6-2.5,1-4.4
		c0.4-1.8,0.4-1.8,0.7-3.5c0.9-0.7,2.3-0.5,2.5,0.3c0.2,3.3,0,4.5-0.6,7.7c-0.8,4.1-1.6,8.1-2.4,12.2c-0.4,2.2-1.1,4.8-1,7.7
		c0.1,1.8,0.3,2.8,1.8,3.8c1.6,1.2,3.1,1.9,4.8,3c1,0.7,2.7,1.8,3.8,1.9c1.7,0.1,3.4-1.7,4.7-3.1c5.9-6,12.2-12.1,18.2-18
		c1.8-1.7,0.6-4.4-1.3-6.6c-5.8-6.2-11.6-10.2-21.7-14.3c-1.4-0.6-3-0.6-4.3,0c-1.8,0.8-3.6,1-5.1-0.6c-1.7-1.9-5.7-4.5-4.5-6.3
		h-41.4v108.2h7.7v38.7L188.3,151.9z"/>
	<g>
		<path class="st1" d="M181.6,199l-5.4-17.1l-5.4,17.1H181.6z M179.9,174.9h-7.3l-8,24.1h-3.3v6h30v-6h-3.3L179.9,174.9z
			 M389.4,197.9c1.1,1.1,2.5,1.7,4.2,1.7s3.1-0.6,4.2-1.7c1.1-1.1,1.7-2.6,1.7-4.4s-0.6-3.2-1.7-4.3c-1.1-1.1-2.5-1.7-4.2-1.7
			s-3.1,0.6-4.2,1.7c-1.1,1.1-1.7,2.6-1.7,4.3S388.2,196.8,389.4,197.9z M399.5,185.4v-2.5h5.5v21.4h-5.5v-2.5
			c-1.6,2.1-4,3.1-6.9,3.1c-2.8,0-5.3-1.1-7.3-3.3c-2-2.2-3-4.9-3-8c0-3.1,1-5.8,3-8c2-2.2,4.5-3.3,7.3-3.3
			C395.5,182.3,397.9,183.3,399.5,185.4z M391.7,173.9H405v4.7h-13.3V173.9z M274,188.7l5.2,15h6.1l-8.1-21.4h-6.3l-8.1,21.4h6.1
			L274,188.7z M373,193.5l8.8,10.8h-6.4l-7.8-9.7v9.7h-5.5v-21.4h5.5v9.4l7.3-9.4h6.6L373,193.5z M343.1,195.1l10-12.2h4.1v21.4
			h-5.4v-12.2l-10,12.2h-4.1v-21.4h5.4V195.1z M327.2,191v-8.1h5.5v21.4h-5.5v-8.1h-8.5v8.1h-5.5v-21.4h5.5v8.1H327.2z M293.9,197.9
			c1.1,1.1,2.5,1.7,4.1,1.7s3-0.6,4.1-1.7c1.1-1.1,1.7-2.5,1.7-4.2s-0.6-3.1-1.7-4.2c-1.1-1.1-2.5-1.7-4.1-1.7s-3,0.6-4.1,1.7
			c-1.1,1.1-1.6,2.6-1.6,4.2S292.8,196.7,293.9,197.9z M306,201.7c-2.2,2.2-4.8,3.3-8,3.3s-5.9-1.1-8-3.3c-2.2-2.2-3.2-4.9-3.2-8
			c0-3.2,1.1-5.8,3.2-8c2.2-2.2,4.9-3.3,8-3.3s5.8,1.1,8,3.3c2.2,2.2,3.3,4.9,3.3,8C309.3,196.8,308.2,199.5,306,201.7z
			 M245.2,191.6h10.9c-0.3-1.4-1-2.5-1.9-3.2c-0.9-0.7-2.1-1.1-3.4-1.1c-1.5,0-2.7,0.4-3.7,1.2C246.1,189.2,245.5,190.2,245.2,191.6
			z M261.4,195.9h-16.1c0.7,2.7,2.7,4,6,4c2.1,0,3.7-0.7,4.8-2.1l4.4,2.6c-2.1,3.1-5.2,4.6-9.3,4.6c-3.5,0-6.4-1.1-8.5-3.2
			c-2.1-2.1-3.2-4.8-3.2-8.1c0-3.2,1.1-5.9,3.2-8c2.1-2.2,4.8-3.3,8.1-3.3c3.2,0,5.7,1.1,7.7,3.3c2,2.2,3.1,4.9,3.1,8
			C261.6,194.2,261.5,195,261.4,195.9z M224,199.7h5.4c1.6,0,2.4-0.7,2.4-2.1c0-0.6-0.2-1.1-0.6-1.4c-0.4-0.3-1-0.5-1.7-0.5H224
			V199.7z M228.7,187.5H224v3.9h4.7c1.6,0,2.3-0.6,2.3-1.9S230.3,187.5,228.7,187.5z M234.2,193.4c2,1,3,2.6,3,4.9
			c0,1.8-0.6,3.3-1.9,4.4c-1.3,1.1-3,1.7-5.2,1.7h-11.2v-21.4h10.4c2.2,0,4,0.6,5.2,1.7c1.3,1.1,1.9,2.5,1.9,4.4
			C236.3,190.8,235.6,192.3,234.2,193.4z M198.6,191.6h10.9c-0.3-1.4-1-2.5-1.9-3.2c-0.9-0.7-2.1-1.1-3.4-1.1
			c-1.5,0-2.7,0.4-3.7,1.2C199.6,189.2,199,190.2,198.6,191.6z M214.8,195.9h-16.1c0.7,2.7,2.7,4,6,4c2.1,0,3.7-0.7,4.8-2.1l4.4,2.6
			c-2.1,3.1-5.2,4.6-9.3,4.6c-3.5,0-6.4-1.1-8.5-3.2c-2.1-2.1-3.2-4.8-3.2-8.1c0-3.2,1.1-5.9,3.2-8c2.1-2.2,4.8-3.3,8.1-3.3
			c3.2,0,5.7,1.1,7.7,3.3c2,2.2,3.1,4.9,3.1,8C215,194.2,214.9,195,214.8,195.9z"/>
		<path class="st1" d="M140.7,189.5l-10.2,7.8l7.9-1.9l7.1,9.4l-1.3-10.7L140.7,189.5z M132.2,187.2l-8.2,11.6l15-11.5l-3.4-4.6
			l-9.9-4.2L132.2,187.2z"/>
		<polygon class="st1" points="125.9,178 135.8,182.2 150,180.4 158.6,173.9 		"/>
		<polygon class="st1" points="159,174.4 150.4,180.9 144.8,194.1 146.1,204.8 		"/>
	</g>
	<path class="st2" d="M91.2,179.1h2.3v-2.9h-2.3c-0.5,0-0.8,0.1-1.1,0.4c-0.3,0.3-0.4,0.6-0.4,1c0,0.4,0.1,0.8,0.4,1
		C90.3,179,90.7,179.1,91.2,179.1z M91,174.3h4.6v10.2h-2.2V181h-1.2l-2.6,3.4H87l2.8-3.6c-0.7-0.2-1.3-0.6-1.7-1.2
		c-0.4-0.6-0.6-1.2-0.6-2c0-0.9,0.3-1.7,1-2.4C89.1,174.6,90,174.3,91,174.3z M78.2,180.7l5.2-6.5h1.7v10.2H83V178l-5.2,6.5H76
		v-10.2h2.2V180.7z M71.3,178.3v-4.1h2.2v10.2h-2.2v-4.1h-4.7v4.1h-2.2v-10.2h2.2v4.1H71.3z M54.1,181.7c0.6,0.6,1.4,0.9,2.3,0.9
		s1.7-0.3,2.3-0.9c0.6-0.6,0.9-1.4,0.9-2.3s-0.3-1.7-0.9-2.3c-0.6-0.6-1.4-0.9-2.3-0.9s-1.7,0.3-2.3,0.9c-0.6,0.6-0.9,1.4-0.9,2.3
		C53.2,180.3,53.5,181.1,54.1,181.7z M59.6,175.7v-1.5h2.2v10.2h-2.2V183c-0.8,1.2-2,1.7-3.6,1.7c-1.4,0-2.6-0.5-3.6-1.6
		c-1-1-1.5-2.3-1.5-3.8c0-1.5,0.5-2.8,1.5-3.8c1-1,2.2-1.6,3.6-1.6C57.6,174,58.8,174.6,59.6,175.7z M39.9,174.3H49v10.2h-2.2v-8.1
		h-4.7v8.1h-2.2V174.3z M35.1,174.3h2.2v10.2h-2.1v-6.7l-2.9,4.7H32l-2.9-4.7v6.7h-2.1v-10.2h2.2l3,4.7L35.1,174.3z M16.3,179.4
		c0,0.9,0.3,1.7,0.9,2.3c0.6,0.6,1.4,0.9,2.3,0.9c0.9,0,1.7-0.3,2.3-0.9c0.6-0.6,0.9-1.4,0.9-2.3c0-0.9-0.3-1.7-0.9-2.3
		c-0.6-0.6-1.4-0.9-2.3-0.9c-0.9,0-1.7,0.3-2.3,0.9C16.6,177.7,16.3,178.4,16.3,179.4z M23.3,183.2c-1,1-2.3,1.6-3.8,1.6
		s-2.8-0.5-3.8-1.6c-1-1-1.6-2.3-1.6-3.8c0-1.5,0.5-2.8,1.6-3.8c1-1,2.3-1.6,3.8-1.6s2.8,0.5,3.8,1.6c1,1,1.6,2.3,1.6,3.8
		C24.9,180.9,24.4,182.1,23.3,183.2z M9.4,179.3l4.7,5.2h-2.6l-4.2-4.7v4.7H5v-10.2h2.2v4.5l4-4.5h2.7L9.4,179.3z M67.2,198.8h6
		c-0.1-0.8-0.5-1.4-1-1.9c-0.5-0.4-1.2-0.7-1.9-0.7c-0.8,0-1.5,0.2-2,0.7S67.4,198,67.2,198.8z M75.4,200.6h-8.1
		c0.2,0.8,0.5,1.4,1.1,1.8c0.6,0.4,1.3,0.6,2.2,0.6c1.2,0,2-0.4,2.6-1.3l1.8,1.1c-1,1.5-2.5,2.2-4.5,2.2c-1.6,0-3-0.5-4-1.5
		c-1-1-1.5-2.3-1.5-3.9c0-1.5,0.5-2.8,1.5-3.8c1-1,2.3-1.6,3.9-1.6c1.5,0,2.7,0.5,3.7,1.6c1,1,1.5,2.3,1.5,3.8
		C75.5,199.9,75.4,200.2,75.4,200.6z M59.2,194.3c1.2,0,2.1,0.4,2.8,1.1c0.7,0.7,1.1,1.8,1.1,3.1v6.3h-2.2v-6c0-0.8-0.2-1.3-0.6-1.8
		s-1-0.6-1.7-0.6c-0.8,0-1.4,0.3-1.9,0.8c-0.5,0.5-0.7,1.2-0.7,2.2v5.5h-2.2v-10.2H56v1.3C56.7,194.8,57.8,194.3,59.2,194.3z
		 M51.3,204.7h-2.2v-10.2h2.2V204.7z M51.1,192.6c-0.3,0.3-0.6,0.4-1,0.4s-0.7-0.1-1-0.4c-0.3-0.3-0.4-0.6-0.4-1s0.1-0.7,0.4-1
		c0.3-0.3,0.6-0.4,1-0.4c0.4,0,0.7,0.1,1,0.4c0.3,0.3,0.4,0.6,0.4,1S51.4,192.3,51.1,192.6z M46.5,204.7h-2.2v-14.9h2.2V204.7z
		 M42.3,194.5v2.1h-2.5v4.9c0,0.4,0.1,0.7,0.3,0.9c0.2,0.2,0.5,0.3,0.8,0.3c0.4,0,0.9,0,1.4,0v2c-1.7,0.2-2.9,0.1-3.6-0.4
		c-0.7-0.5-1.1-1.4-1.1-2.8v-4.9h-1.9v-2.1h1.9v-2.2l2.2-0.7v2.9H42.3z M34.9,190.2v2.1c-1.6-0.1-2.4,0.5-2.4,2v0.2h2.4v2.1h-2.4
		v8.1h-2.2v-8.1h-1.6v-2.1h1.6v-0.2c0-1.4,0.4-2.5,1.2-3.2C32.3,190.4,33.4,190.1,34.9,190.2z M19.4,199.6c0,0.9,0.3,1.7,0.9,2.3
		c0.6,0.6,1.4,0.9,2.3,0.9s1.7-0.3,2.3-0.9c0.6-0.6,0.9-1.4,0.9-2.3c0-0.9-0.3-1.7-0.9-2.3c-0.6-0.6-1.4-0.9-2.3-0.9
		s-1.7,0.3-2.3,0.9C19.7,197.9,19.4,198.7,19.4,199.6z M26.4,203.4c-1,1-2.3,1.6-3.8,1.6s-2.8-0.5-3.8-1.6c-1-1-1.6-2.3-1.6-3.8
		c0-1.5,0.5-2.8,1.6-3.8c1-1,2.3-1.6,3.8-1.6s2.8,0.5,3.8,1.6c1,1,1.6,2.3,1.6,3.8C28,201.1,27.4,202.4,26.4,203.4z M10.5,205
		c-1.4,0-2.5-0.3-3.5-0.9c-1-0.6-1.6-1.5-2-2.6l2-1.2c0.6,1.6,1.8,2.4,3.6,2.4c0.9,0,1.5-0.2,2-0.5c0.4-0.3,0.7-0.8,0.7-1.4
		c0-0.6-0.2-1-0.7-1.3s-1.3-0.7-2.5-1c-1.2-0.4-2.2-0.8-3-1.3c-0.9-0.7-1.4-1.6-1.4-2.9c0-1.3,0.4-2.3,1.3-3c0.9-0.7,2-1.1,3.2-1.1
		c1.1,0,2.1,0.3,3,0.8c0.9,0.5,1.5,1.3,2,2.3l-2,1.1c-0.6-1.3-1.6-2-3-2c-0.7,0-1.2,0.2-1.6,0.5c-0.4,0.3-0.6,0.7-0.6,1.3
		c0,0.5,0.2,1,0.6,1.3c0.4,0.3,1.2,0.6,2.3,1c0.7,0.2,1.1,0.4,1.2,0.4c0.2,0.1,0.5,0.2,1.1,0.4c0.4,0.2,0.8,0.4,1,0.6
		c1.1,0.8,1.6,1.8,1.5,2.9c0,1.3-0.5,2.3-1.4,3.1C13.3,204.6,12,205,10.5,205z"/>
</g>
</svg>
